HIERARCHY
ROOT Hips
{
	OFFSET 0.00000 0.00000 0.00000
	CHANNELS 6 Xposition Yposition Zposition Zrotation Yrotation Xrotation 
	JOINT LHipJoint
	{
		OFFSET 0 0 0
		CHANNELS 3 Zrotation Yrotation Xrotation
		JOINT LeftHip
		{
			OFFSET 1.39187 -1.60231 0.69152
			CHANNELS 3 Zrotation Yrotation Xrotation
			JOINT LeftKnee
			{
				OFFSET 2.43314 -6.68499 0.00000
				CHANNELS 3 Zrotation Yrotation Xrotation
				JOINT LeftAnkle
				{
					OFFSET 2.32059 -6.37578 0.00000
					CHANNELS 3 Zrotation Yrotation Xrotation
					JOINT LeftToe
					{
						OFFSET 0.23021 -0.63250 1.71305
						CHANNELS 3 Zrotation Yrotation Xrotation
						End Site
						{
							OFFSET 0.00000 -0.00000 0.91647
						}
					}
				}
			}
		}
	}
	JOINT RHipJoint
	{
		OFFSET 0 0 0
		CHANNELS 3 Zrotation Yrotation Xrotation
		JOINT RightHip
		{
			OFFSET -1.19407 -1.60231 0.69152
			CHANNELS 3 Zrotation Yrotation Xrotation
			JOINT RightKnee
			{
				OFFSET -2.44411 -6.71513 0.00000
				CHANNELS 3 Zrotation Yrotation Xrotation
				JOINT RightAnkle
				{
					OFFSET -2.31924 -6.37207 0.00000
					CHANNELS 3 Zrotation Yrotation Xrotation
					JOINT RightToe
					{
						OFFSET -0.19473 -0.53502 1.87724
						CHANNELS 3 Zrotation Yrotation Xrotation
						End Site
						{
							OFFSET -0.00000 -0.00000 0.98293
						}
					}
				}
			}
		}
	}
	JOINT lowerback
	{
		OFFSET 0 0 0
		CHANNELS 3 Zrotation Yrotation Xrotation
		JOINT Chest
		{
			OFFSET -0.01120 1.87307 0.09613
			CHANNELS 3 Zrotation Yrotation Xrotation
			JOINT Chest2
			{
				OFFSET 0.01099 1.87818 0.04834
				CHANNELS 3 Zrotation Yrotation Xrotation
				JOINT lowerneck
				{
					OFFSET 0 0 0
					CHANNELS 3 Zrotation Yrotation Xrotation
					JOINT Neck
					{
						OFFSET 0.01702 1.40324 -0.12579
						CHANNELS 3 Zrotation Yrotation Xrotation
						JOINT Head
						{
							OFFSET -0.04239 1.38587 -0.01614
							CHANNELS 3 Zrotation Yrotation Xrotation
							End Site
							{
								OFFSET -0.02510 1.47031 -0.00154
							}
						}
					}
				}
				JOINT LeftCollar
				{
					OFFSET 0 0 0
					CHANNELS 3 Zrotation Yrotation Xrotation
					JOINT LeftShoulder
					{
						OFFSET 2.95699 0.62343 0.11653
CHANNELS 3 Zrotation Xrotation Yrotation
						JOINT LeftElbow
						{
OFFSET 0 -4.683820 -0.000000
CHANNELS 3 Zrotation Xrotation Yrotation
							JOINT LeftWrist
							{
OFFSET 0 -2.981240 -0.000000
CHANNELS 3 Zrotation Xrotation Yrotation
								JOINT lhand
								{
									OFFSET 0 0 0
CHANNELS 3 Zrotation Xrotation Yrotation
									JOINT LFingers
									{
OFFSET 0 -0.707590 0.000000
CHANNELS 3 Zrotation Xrotation Yrotation
										End Site
										{
OFFSET 0 -0.570480 0.000000
										}
									}
								}
								JOINT LThumb
								{
OFFSET 0 0.000000 0.000000
CHANNELS 3 Zrotation Xrotation Yrotation
									End Site
									{
OFFSET 0 -0.579190 0.579190
									}
								}
							}
						}
					}
				}
				JOINT RightCollar
				{
					OFFSET 0 0 0
					CHANNELS 3 Zrotation Yrotation Xrotation
					JOINT RightShoulder
					{
						OFFSET -2.99027 0.88714 -0.02793
CHANNELS 3 Zrotation Xrotation Yrotation
						JOINT RightElbow
						{
OFFSET 0 -4.758760 -0.000000
CHANNELS 3 Zrotation Xrotation Yrotation
							JOINT RightWrist
							{
OFFSET 0 -2.932930 -0.000000
CHANNELS 3 Zrotation Xrotation Yrotation
								JOINT rhand
								{
									OFFSET 0 0 0
CHANNELS 3 Zrotation Xrotation Yrotation
									JOINT RFingers
									{
OFFSET 0 -0.831750 0.000000
CHANNELS 3 Zrotation Xrotation Yrotation
										End Site
										{
OFFSET 0 -0.670580 0.000000
										}
									}
								}
								JOINT RThumb
								{
OFFSET 0 0.000000 0.000000
CHANNELS 3 Zrotation Xrotation Yrotation
									End Site
									{
OFFSET 0 -0.680820 0.680820
									}
								}
							}
						}
					}
				}
			}
		}
	}
}
MOTION
Frames: 9
Frame Time: 0.008333333333333333
29.702988 15.438597 1.750965 139.160224 -81.820784 -122.367868 0.000000 0.000000 0.000000 -29.639995 -10.433531 -29.204022 6.962114 15.299887 48.730739 1.044582 17.735644 -32.603494 0.000301 0.015665 0.043200 0.000000 0.000000 0.000000 -0.789861 20.431481 -59.238324 -7.351889 -15.620292 50.191362 0.390806 -13.331096 -12.948431 -0.420842 4.149221 -11.498546 -7.964656 0.455123 0.729372 -1.458432 0.367565 -1.985088 2.941957 0.303165 -2.514618 -1.714582 1.364412 2.752345 3.919752 1.990576 -10.852497 1.533031 0.818560 -4.115332 0.000000 0.000000 0.000000 -4.893236 21.511755 102.974237 6.354619 -10.852309 0.604241 3.881157 116.169984 -25.862843 0.000000 0.000000 0.000000 -7.125000 0.000000 0.000000 -26.940980 53.790008 6.168883 0.000000 0.000000 0.000000 11.141670 27.233347 -19.753986 -10.842142 -18.045964 -1.726692 -9.580576 17.717537 -5.662348 0.000000 0.000000 0.000000 7.125000 0.000000 0.000000 12.672780 24.243164 6.505207
29.780838 15.497743 1.755575 140.611100 -81.780008 -123.893830 0.000000 0.000000 0.000000 -29.444884 -10.574039 -29.155571 6.850239 15.204395 48.305521 1.063734 17.358380 -32.335656 0.014734 0.706622 1.942305 0.000000 0.000000 0.000000 -0.360493 20.124286 -59.192868 -8.104778 -16.193753 52.936062 0.155054 -12.098220 -14.936720 -0.136331 2.379135 -6.554718 -7.671220 0.500796 0.871148 -1.599930 0.413690 -2.016299 2.629548 0.322594 -2.627018 -1.579905 1.337156 3.006898 3.984023 1.972029 -11.161647 1.534726 0.793008 -4.275318 0.000000 0.000000 0.000000 -4.767110 22.271632 108.348050 6.563173 -11.197911 0.644237 4.076471 120.816122 -25.954856 0.000000 0.000000 0.000000 -7.125000 0.000000 0.000000 -26.818163 53.906531 6.219077 0.000000 0.000000 0.000000 11.102247 27.586409 -18.967014 -11.057839 -18.376758 -1.794149 -9.445428 16.995080 -5.262431 0.000000 0.000000 0.000000 7.125000 0.000000 0.000000 12.807807 24.640559 6.456811
29.851375 15.536838 1.757525 142.487706 -81.695364 -125.816890 0.000000 0.000000 0.000000 -29.197446 -10.731885 -29.123601 6.753364 15.120521 47.934920 1.138822 16.789892 -32.225276 0.080740 1.810940 4.984117 0.000000 0.000000 0.000000 0.169422 19.828006 -59.117749 -8.820490 -16.688094 55.463136 0.069517 -11.655520 -15.580628 -0.110112 2.134073 -5.876554 -7.551162 0.535276 0.841482 -1.569200 0.470281 -1.971013 2.593278 0.346394 -2.567396 -1.761962 1.324243 3.054159 4.043086 1.949230 -11.303716 1.590536 0.783798 -4.339831 0.000000 0.000000 0.000000 -4.822233 22.822120 114.682201 6.893118 -11.743188 0.709736 4.362728 126.344539 -25.061612 0.000000 0.000000 0.000000 -7.125000 0.000000 0.000000 -25.976895 53.161668 5.510755 0.000000 0.000000 0.000000 10.657245 27.825136 -17.849378 -11.272521 -18.704666 -1.862443 -9.403050 16.141330 -5.055207 0.000000 0.000000 0.000000 7.125000 0.000000 0.000000 12.858201 24.845799 6.420523
29.920242 15.570153 1.754372 144.586062 -81.600533 -127.926346 0.000000 0.000000 0.000000 -28.925153 -10.850650 -29.173768 6.661609 15.040094 47.582436 1.132102 16.666507 -32.061399 0.149498 2.487554 6.855362 0.000000 0.000000 0.000000 0.731309 19.594119 -58.957858 -9.499761 -17.116192 57.799309 0.059363 -11.700997 -15.800313 -0.081865 1.844325 -5.075736 -7.521307 0.600873 0.712006 -1.479098 0.579978 -1.894774 2.668155 0.396309 -2.426346 -1.931148 1.320602 3.231838 4.047424 1.935930 -11.722454 1.628418 0.775517 -4.530757 0.000000 0.000000 0.000000 -5.083519 23.418799 117.119854 7.045117 -11.993472 0.741022 4.234991 127.592958 -25.435355 0.000000 0.000000 0.000000 -7.125000 0.000000 0.000000 -26.331234 53.473172 5.802003 0.000000 0.000000 0.000000 10.076778 27.797282 -16.953366 -11.407949 -18.910842 -1.906005 -9.311353 15.511227 -4.888830 0.000000 0.000000 0.000000 7.125000 0.000000 0.000000 12.941405 25.011204 6.413095
29.998629 15.603817 1.746189 146.372593 -81.462708 -129.696646 0.000000 0.000000 0.000000 -28.680682 -10.916191 -29.363909 6.580726 14.968369 47.270076 1.070942 16.773292 -31.787229 0.187322 2.785765 7.682888 0.000000 0.000000 0.000000 1.235936 19.402450 -58.706702 -10.099629 -17.463363 59.817966 0.070705 -11.919319 -15.962267 -0.103927 2.071634 -5.703912 -7.479009 0.697788 0.600996 -1.519346 0.725205 -1.803503 2.600389 0.460707 -2.282317 -1.928454 1.335442 3.388124 4.177489 1.977232 -12.338982 1.619611 0.772276 -4.621066 0.000000 0.000000 0.000000 -4.990539 23.864096 119.243403 7.157980 -12.178936 0.764608 4.122406 128.630365 -25.437094 0.000000 0.000000 0.000000 -7.125000 0.000000 0.000000 -26.439048 53.454425 5.816296 0.000000 0.000000 0.000000 9.752373 27.539085 -16.537208 -11.523149 -19.085431 -1.943675 -9.292500 15.251734 -4.945295 0.000000 0.000000 0.000000 7.125000 0.000000 0.000000 12.949951 24.955639 6.434645
30.075496 15.635133 1.737183 147.988105 -81.380642 -131.160524 0.000000 0.000000 0.000000 -28.377803 -11.076999 -29.645161 6.481819 14.879340 46.885760 0.978864 16.921434 -31.355495 0.213676 2.975284 8.210060 0.000000 0.000000 0.000000 1.784100 19.131403 -58.533339 -10.619788 -17.742168 61.538305 0.180928 -12.593406 -15.330432 -0.202221 2.827634 -7.803713 -7.394986 0.776375 0.680426 -1.548681 0.809027 -2.014529 2.517692 0.513300 -2.552941 -1.928549 1.309625 3.603100 4.359001 1.974330 -12.726620 1.565262 0.745455 -4.458032 0.000000 0.000000 0.000000 -4.957887 24.737468 120.088957 7.191182 -12.233430 0.771629 3.690961 128.223902 -25.767569 0.000000 0.000000 0.000000 -7.125000 0.000000 0.000000 -27.060556 53.670405 6.119666 0.000000 0.000000 0.000000 9.453158 27.891333 -15.556607 -11.825587 -19.542057 -2.043918 -9.538404 14.438372 -4.996804 0.000000 0.000000 0.000000 7.125000 0.000000 0.000000 12.763914 24.901976 6.354210
30.144336 15.670812 1.728119 149.805851 -81.230088 -132.993551 0.000000 0.000000 0.000000 -28.130010 -11.090855 -29.701326 6.356422 14.764749 46.395323 0.887588 17.072940 -30.926372 0.238560 3.141869 8.674196 0.000000 0.000000 0.000000 2.498784 18.830079 -58.194430 -11.074337 -17.969963 63.021250 0.396028 -13.585608 -13.309773 -0.458993 4.279707 -11.874969 -7.267069 0.882271 0.600172 -1.606122 0.959702 -1.994594 2.383726 0.582944 -2.497713 -1.971871 1.245479 3.673757 4.506074 1.902301 -12.867531 1.621608 0.699748 -4.512084 0.000000 0.000000 0.000000 -4.887997 25.253169 120.560795 7.217888 -12.277222 0.777345 3.381277 127.814777 -26.229293 0.000000 0.000000 0.000000 -7.125000 0.000000 0.000000 -27.656663 54.022995 6.516940 0.000000 0.000000 0.000000 9.104508 27.935905 -14.332244 -12.163979 -20.049780 -2.158414 -9.893022 13.411338 -4.784872 0.000000 0.000000 0.000000 7.125000 0.000000 0.000000 12.522050 25.107729 6.166814
30.200418 15.717348 1.720950 151.900569 -80.798791 -135.381923 0.000000 0.000000 0.000000 -28.121679 -10.757950 -29.393915 6.203569 14.622303 45.792458 0.814136 17.289257 -30.677219 0.270644 3.345127 9.241235 0.000000 0.000000 0.000000 3.049407 18.713275 -57.405365 -11.520235 -18.178769 64.458092 0.402657 -12.982756 -11.941164 -0.503106 4.520198 -12.549535 -7.286667 1.089420 0.696768 -1.687435 1.229182 -1.907140 2.300955 0.714190 -2.486129 -1.934340 1.194548 3.770136 4.544236 1.842543 -13.036600 1.630457 0.661725 -4.577954 0.000000 0.000000 0.000000 -4.804726 25.683720 121.018302 7.231991 -12.300358 0.780337 3.277627 127.631450 -26.435099 0.000000 0.000000 0.000000 -7.125000 0.000000 0.000000 -27.892763 54.185337 6.693952 0.000000 0.000000 0.000000 8.682310 27.778584 -13.481375 -12.420617 -20.432305 -2.247113 -10.103019 12.604897 -4.494322 0.000000 0.000000 0.000000 7.125000 0.000000 0.000000 12.393764 25.393346 6.015825
30.264632 15.763537 1.709122 154.839871 -80.435864 -138.392449 0.000000 0.000000 0.000000 -27.824799 -10.488454 -29.342295 6.043764 14.470260 45.156405 0.718687 17.553001 -30.331176 0.304992 3.549432 9.812495 0.000000 0.000000 0.000000 3.465045 18.958416 -56.736049 -11.991326 -18.385533 65.959731 0.257326 -11.416572 -11.772083 -0.312481 3.570045 -9.872583 -7.222517 1.263813 0.590292 -1.659777 1.478748 -1.839935 2.289317 0.833669 -2.378399 -1.918337 1.198768 3.790966 4.473637 1.842367 -13.256840 1.606832 0.659715 -4.648151 0.000000 0.000000 0.000000 -4.889011 26.008924 120.518354 7.199763 -12.247567 0.773468 2.909474 126.214151 -26.378510 0.000000 0.000000 0.000000 -7.125000 0.000000 0.000000 -28.202547 54.068068 6.693391 0.000000 0.000000 0.000000 8.113154 27.382550 -12.862341 -12.642766 -20.761315 -2.325240 -10.189967 12.091266 -4.255103 0.000000 0.000000 0.000000 7.125000 0.000000 0.000000 12.351732 25.629837 5.924617
